# xmcd
#
# Track frame offsets:
#	150
#	13495
#	26247
#	38807
#	50037
#	61562
#	73485
#	87272
#	98300
#	108692
#	120840
#	133857
#
# Disc length: 1885 seconds
# Revision: 2
# Processed by: cddbd v1.5.2PL0 Copyright (c) Steve Scherf et al.
# Submitted via: dBpowerAMP V12.0
#
DISCID=a5075b0c
DTITLE=Ray Charles - Going Down Slow
DYEAR=1993
DGENRE=Blues
TTITLE0=Alone in the City
TTITLE1=Can Anyone Ask for More
TTITLE2=Rockin' Chair Blues
TTITLE3=Let's Have a Ball
TTITLE4=If I Give You My Love
TTITLE5=Can't You See Darling?
TTITLE6=This Love of Mine
TTITLE7=A Sentimental Blues
TTITLE8=Now She's Gone
TTITLE9=Going Down Slow
TTITLE10=The Snow Is Falling
TTITLE11=I'm Sitting on the Top of the World
EXTD=
EXTT0=
EXTT1=
EXTT2=
EXTT3=
EXTT4=
EXTT5=
EXTT6=
EXTT7=
EXTT8=
EXTT9=
EXTT10=
EXTT11=
PLAYORDER=
